# xmcd CD database file
#
# Track frame offsets:
#	150
#	38134
#	85092
#	132305
#
# Disc length: 2126 seconds
#
# Revision: 0
# Processed by: cddbd v1.5.2PL0 Copyright (c) Steve Scherf et al.
# Submitted via: CDex 1.51
#
DISCID=2a084c04
DTITLE=Nat Birchall - Akhenaten
DYEAR=2009
DGENRE=Jazz
TTITLE0=Nica's Dance
TTITLE1=A Prayer For...
TTITLE2=Akhenaten
TTITLE3=Many Blessings
EXTD=YEAR: 2009
EXTT0=
EXTT1=
EXTT2=
EXTT3=
PLAYORDER=
